<svg width="110" height="114" viewBox="0 0 110 114" fill="none" xmlns="http://www.w3.org/2000/svg">
<rect width="110" height="114" fill="#969696"/>
<g id="landing - en" clip-path="url(#clip0_0_1)">
<rect width="1440" height="5709" transform="translate(-665 -4241)" fill="white"/>
<g id="autolayout all sections">
<g id="reviews">
<rect id="card background" x="-182.5" y="-49" width="474" height="595" rx="8" fill="#EEE7E1"/>
<g id="vector image">
<path id="Vector" d="M76.8547 62.8011C76.4838 62.5788 76.2914 62.6656 75.9241 62.6594C75.4812 62.6483 75.0194 62.4785 74.6101 62.3995C73.6452 62.1564 72.6252 62.4058 71.9567 61.458C71.7915 61.2138 71.4383 61.442 71.5566 61.689C72.004 62.7159 72.9689 62.9591 73.9673 63.1344C74.1577 63.17 74.369 63.242 74.6013 63.3504C74.0913 63.4751 73.5652 63.4878 73.0306 63.36C72.7906 63.2803 72.5073 63.4196 72.5815 63.7162C72.6145 64.1094 72.9127 64.3738 73.2521 64.5416C72.8806 64.7803 72.5015 65.0477 72.0881 65.2137C71.4382 65.5161 70.6874 65.3918 70.0947 65.0793C68.7973 64.4703 67.7985 63.0342 66.9628 61.9647C65.9646 60.698 65.0001 59.3633 64.1839 57.9916C63.4306 56.7289 63.3749 55.3304 63.7803 53.9323C63.8676 53.6636 63.5311 53.5427 63.394 53.7673C63.0374 54.4097 62.6856 54.9766 62.5327 55.7196C62.4279 56.1681 62.4665 56.6551 62.5597 57.1105C62.0238 57.2744 61.5622 57.7349 61.1208 58.0625C60.6431 58.4111 60.1653 58.7597 59.7162 59.116C59.6176 59.1971 59.5267 59.2496 59.4644 59.3098C59.6817 58.3841 59.7059 57.3759 59.5922 56.423C59.3117 54.257 58.0636 52.4313 57.5907 50.3521C57.5479 50.11 57.2121 50.1584 57.2262 50.3928C57.2594 51.4164 57.3759 52.4161 57.5861 53.4103C57.7963 54.4044 58.0897 55.3747 58.2531 56.3717C58.4269 57.3868 58.3951 58.4237 58.0973 59.4201C57.9792 59.8036 57.8017 60.2941 57.7542 60.758C57.1021 60.5525 56.3982 60.4254 55.7307 60.2772C54.9771 60.1061 54.1774 60.107 53.4218 60.0583C52.5437 60.0075 51.7097 59.907 50.8526 59.8926C49.9668 59.8705 49.1077 59.9785 48.2352 60.0215C48.2995 59.8389 48.3429 59.6198 48.3603 59.44C48.3923 59.0335 48.3698 58.6585 48.4879 58.2751C48.6599 57.6908 48.9676 57.1737 49.1787 56.6153C49.5499 55.7462 49.8323 54.8072 49.4584 53.9075C49.1818 53.2185 48.3791 52.5421 47.587 52.5144C47.4813 52.1632 46.8691 52.1529 46.8112 52.5986C46.7532 53.0443 46.4714 53.5223 46.3092 53.9554C46.1086 54.532 45.8555 55.0176 45.5373 55.5166C45.201 56.026 44.7757 56.4656 44.3897 56.9309C44.0036 57.3963 43.6672 57.9058 43.2917 58.3894C42.5405 59.3565 41.69 60.2356 40.8997 61.1769C40.5654 61.5639 40.1164 61.9201 39.7639 62.3177C38.0818 61.8823 36.2815 61.8304 34.5569 61.7834C32.5013 61.7092 30.4485 61.6819 28.3768 61.4957C24.3557 61.1255 20.5108 59.9261 16.4416 59.8505C16.3555 59.8274 16.3353 59.9603 16.4395 59.9729C18.3888 60.157 20.2697 60.7686 22.1449 61.2864C24.0593 61.8301 26.0227 62.2486 27.9958 62.5159C29.9689 62.7833 31.9356 62.7875 33.9157 62.8569C35.9426 62.9234 37.9024 63.1257 39.8993 63.4762C40.4024 63.5495 40.6317 62.9807 40.393 62.6092C40.477 62.7547 41.9576 61.2451 42.1003 61.1142C42.9403 60.217 43.7593 59.2834 44.6098 58.4044C45.4603 57.5253 45.9371 56.377 46.5917 55.3686C46.8504 54.9767 46.9811 54.489 47.1328 54.0377C47.1999 53.902 47.2642 53.7193 47.339 53.5549C47.7729 53.8864 48.2145 54.1892 48.2692 54.7881C48.3324 55.5276 47.878 56.4205 47.6256 57.0754C47.3991 57.6912 47.209 58.286 47.2015 58.945C47.1897 59.2186 47.1779 59.4922 47.1087 59.7504C47.0493 59.8574 46.9975 59.9358 46.9745 60.0219C46.8051 60.0226 46.6148 59.987 46.435 59.9696C46.216 59.9263 46.0846 60.2447 46.2623 60.3845C47.2869 61.151 48.5077 60.9554 49.6803 61.0544C50.3527 61.127 50.9916 61.2674 51.664 61.3399C52.4301 61.4068 53.2326 61.4528 53.9988 61.5197C54.697 61.5531 55.3799 61.6438 56.0579 61.8101C56.6499 61.9533 57.5461 61.9936 58.0556 62.33C58.3796 62.5552 58.5904 63.0882 58.4436 63.464C58.4464 63.5109 58.4282 63.5214 58.431 63.5682C57.6439 63.465 56.8085 63.6562 56.0565 63.8237C55.0001 64.0941 53.9261 63.9139 52.8599 64.3355C52.6752 64.3936 52.783 64.6223 52.9524 64.6216C53.7416 64.6024 54.5525 64.789 55.3369 64.8454C56.1394 64.8913 56.9468 64.8617 57.7541 64.832C58.3558 64.8242 58.8484 64.8793 59.2362 65.3829C59.3594 65.5543 59.5848 65.8606 59.5233 66.0901C59.5233 66.0901 59.5051 66.1006 59.5079 66.1475C59.396 66.1637 59.2476 66.2008 59.1203 66.2743C58.5355 66.5634 57.8583 66.5664 57.1971 66.6814C56.4527 66.8202 55.7713 67.0681 55.0031 67.1236C54.3861 67.1888 53.8187 67.2982 53.2836 67.6314C53.1563 67.7049 53.2536 67.9155 53.3942 67.907C53.9693 67.769 54.634 67.8702 55.228 67.891C55.8689 67.909 56.4859 67.8437 57.0848 67.789C57.6368 67.737 58.2127 67.7683 58.7829 67.7059C59.0936 67.866 59.3343 68.115 59.4009 68.4403C59.5719 69.4086 58.3344 69.9533 57.5662 70.0088C56.7252 70.1064 55.9058 69.7792 55.0851 69.7438C54.3372 69.6663 53.5088 69.6596 52.8008 69.7774C52.4104 69.8573 52.4414 70.3729 52.8038 70.4546C52.8507 70.4518 52.9081 70.4672 52.9654 70.4826C53.2846 70.7833 53.6365 70.8469 54.0927 70.923C54.9162 71.0053 55.6957 71.1373 56.499 71.3525C57.3673 71.5544 58.3614 71.3442 59.2262 71.3299C59.4816 71.3522 60.0469 71.3654 60.3681 71.5437C59.8763 71.6579 59.4006 71.884 58.9403 72.0528C58.1728 72.2776 57.3998 72.4087 56.6057 72.5034C55.2309 72.6424 53.8638 72.7527 52.5024 72.9567C49.6724 73.3053 46.8388 73.4378 44.0023 72.8929C41.1188 72.3509 38.3297 71.3422 35.3876 71.0766C32.2474 70.8041 29.0914 71.0499 25.9213 71.0615C25.8275 71.0671 25.8073 71.2 25.901 71.1944C29.1034 71.4068 32.3547 71.4939 35.532 71.9147C38.5476 72.3077 41.3949 73.5011 44.349 74.1235C47.152 74.7362 50.1234 74.5485 52.9351 74.2103C54.3645 74.0399 55.8379 73.8197 57.2721 73.5737C57.9801 73.4559 58.6825 73.2444 59.3744 73.0147C60.0573 73.1054 60.7855 72.8547 61.4797 73.1329C62.7791 73.6195 63.9442 74.3775 65.1458 75.1146C66.376 75.8593 67.6734 76.4683 68.8441 77.3201C70.0149 78.1719 71.0927 79.1986 72.2635 80.0504C72.491 80.2344 72.74 79.9936 72.6503 79.7544C72.2588 78.4041 70.9018 77.2718 69.8611 76.3934C68.7106 75.4087 67.3426 74.7193 66.0263 73.9515C64.8457 73.2508 63.5909 72.2535 62.1936 72.0174C61.8522 71.9721 61.5318 71.9631 61.1854 71.9933C61.2008 71.9359 61.198 71.889 61.1952 71.8422C61.5016 71.6168 61.5385 71.1347 61.183 70.855C60.6679 70.4248 59.8626 70.332 59.2245 70.3609C59.1776 70.3637 59.102 70.3589 59.0265 70.354C59.2266 70.2385 59.4056 70.0866 59.556 69.927C60.147 69.2706 60.4063 68.4176 59.861 67.6412C59.819 67.5684 59.7378 67.4698 59.6594 67.418C59.8777 67.292 60.0931 67.1192 60.2904 66.9568C60.389 66.8756 60.4379 66.7503 60.44 66.6279C60.6624 66.257 60.7175 65.7644 60.6194 65.3845C60.4814 64.8095 60.0754 64.3164 59.5842 63.9695C60.0373 63.3683 59.6732 62.3176 59.3085 61.7279C59.193 61.5278 59.0621 61.3851 58.9053 61.2816C58.9543 61.1564 58.9822 60.9948 59.036 60.7939C59.4633 60.232 60.0397 59.8022 60.6189 59.4193C61.2603 58.9762 62.4056 58.7758 62.8713 58.0704C63.2634 58.9595 63.8661 59.7513 64.4295 60.5172C65.0455 61.3741 65.6902 62.2387 66.3712 63.0822C67.3665 64.3021 68.485 65.6934 69.9985 66.2988C71.5695 66.9196 73.5821 66.1213 74.4772 64.7315C75.0761 64.6768 75.6484 64.4919 75.9911 64.2455C76.152 64.1041 76.2296 63.9865 76.2499 63.8536C76.5598 63.8444 76.8067 63.7261 76.9899 63.3293C77.0752 63.1831 77.0297 62.8941 76.8547 62.8011Z" fill="#9A795D" fill-opacity="0.7"/>
<path id="Vector_2" d="M82.3302 56.3661C81.398 57.6076 81.0116 59.1645 80.9533 60.7016C80.9394 61.0976 80.9045 61.4573 80.8228 61.8197C80.7229 62.1927 80.2065 62.0543 79.9014 61.9879C79.4634 61.9013 79.0897 61.6321 78.623 61.5378C78.2711 61.4742 77.7086 61.508 77.4517 61.147L77.4048 61.1498C76.5912 61.5468 77.189 62.4142 77.8929 62.5413C78.8655 62.7558 80.0076 63.5999 81.0184 63.0405C81.7669 62.6569 81.7132 61.1359 81.7361 60.4194C81.7539 59.1481 82.1936 57.8515 82.9705 56.8452C83.2762 56.4505 82.6176 55.9819 82.3302 56.3661Z" fill="#9A795D" fill-opacity="0.7"/>
<path id="Vector_3" d="M82.4019 54.4326C81.0623 53.1205 78.2271 52.2839 76.5707 53.5312C76.4462 53.6516 76.5253 53.8727 76.6869 53.9006C77.5343 54.0662 78.4382 54.0778 79.3191 54.1754C80.3434 54.3115 80.9664 54.9704 81.8459 55.3598C82.475 55.6514 82.8232 54.8684 82.4019 54.4326Z" fill="#9A795D" fill-opacity="0.7"/>
<path id="Vector_4" d="M80.2359 57.5271C80.04 57.3977 79.7874 57.4223 79.5034 57.3923C79.1906 57.3546 78.9296 57.2386 78.6504 57.133C78.0605 56.8673 77.8029 56.3371 77.3039 56.0189C77.0114 55.8483 76.7002 56.1492 76.8682 56.4402C77.083 56.7284 77.1237 57.0929 77.3491 57.3993C77.5955 57.742 77.8803 57.9413 78.2302 58.1273C78.7837 58.414 79.8508 58.7922 80.3775 58.3184C80.6055 58.0412 80.5753 57.6949 80.2359 57.5271Z" fill="#9A795D" fill-opacity="0.7"/>
<path id="Vector_5" d="M81.0306 29.5438C79.5847 28.3416 78.2011 27.0792 76.486 26.2506C75.5854 25.8248 74.6415 25.618 73.706 25.5519C74.747 22.9866 73.0221 19.957 70.6254 18.7459C68.2546 17.4957 65.2043 18.0928 62.8146 19.036C60.0401 20.1528 57.6311 22.0287 56.0038 24.5444C54.3506 27.0994 53.4256 31.1255 55.8304 33.5686C56.5212 34.2611 57.2678 34.6302 58.1039 34.6083C57.562 35.7699 57.2917 37.0657 57.2088 38.3503C57.1357 39.4838 57.4566 40.7535 58.102 41.7874C57.5746 42.0919 57.0499 42.4433 56.5589 42.7268C55.7558 43.142 55.0157 43.6663 54.1783 43.98C53.4424 44.2594 52.5651 44.3779 51.7892 44.4621C51.3022 44.5007 50.8852 44.4505 50.5787 44.0455C50.3323 43.7028 50.1538 43.3936 49.8374 43.1397C49.5517 42.1407 48.6511 41.7149 48.0274 40.8867C47.3512 39.9676 47.4474 38.748 46.9168 37.7449C46.9473 36.9998 46.777 36.2008 46.8104 35.5026C46.8499 34.437 47.1372 33.4224 47.5286 32.4204C47.9278 31.3896 48.3949 30.3925 48.4316 29.28C48.4237 28.6783 48.4158 28.0766 48.5304 27.477C48.6603 26.82 48.9231 26.1832 48.9383 25.4954C48.9529 25.2688 48.6499 25.0799 48.4947 25.3151C47.8898 26.3675 47.4648 27.4374 47.207 28.629C46.9492 29.8206 46.287 30.8577 45.9718 32.0339C45.6874 33.0954 45.6401 34.1897 45.6398 35.2811C45.6546 35.6848 45.6541 36.1459 45.7214 36.6405C45.5751 36.5552 45.4394 36.4881 45.3113 36.3923C44.7914 36.0377 44.3183 35.6804 43.8242 35.2866C42.8388 34.546 41.8409 33.9096 40.6773 33.4902C39.6102 33.112 38.5305 32.8381 37.5949 32.1416C36.7376 31.4968 36.0586 30.5308 35.4217 29.6375C35.5572 29.0743 35.8439 28.5207 36.076 27.9987C36.4654 27.1191 36.9619 26.299 37.4192 25.453C38.3443 23.7791 39.6032 22.1793 40.0847 20.325C40.2307 19.78 39.3539 19.4374 39.0721 19.9154C38.5421 20.8034 38.0981 21.7145 37.568 22.6025C37.0303 23.5192 36.4744 24.4465 35.9968 25.4254C35.5346 26.347 35.1088 27.2476 34.7901 28.2076C34.7594 28.3224 34.7209 28.4658 34.672 28.5911C33.0103 26.3009 31.5381 23.8771 29.9674 21.5345C29.7707 21.2358 29.3083 21.527 29.4399 21.839C30.6106 24.4127 31.8952 26.8477 33.4842 29.1799C34.2682 30.3277 35.1144 31.4154 36.0152 32.4716C36.7431 33.3124 37.7249 33.8368 38.7556 34.236C39.8332 34.6323 40.931 34.8957 41.9002 35.5244C42.9555 36.1762 43.8527 37.0162 44.9157 37.6392C45.4902 37.9623 46.2564 38.0292 46.4056 38.7918C46.536 39.3955 46.5152 39.9895 46.7211 40.5982C47.1462 41.8805 48.8905 42.2556 49.0736 43.5807C49.0764 43.6276 49.0897 43.6927 49.1107 43.729L49.1212 43.7472C49.1506 43.9242 49.2088 44.1089 49.2487 44.3041C49.1444 44.2915 49.022 44.2895 48.8891 44.2692C48.3888 44.2428 47.9298 44.1198 47.468 43.9499C46.573 43.6179 45.727 43.1606 44.8397 42.7999C44.1351 42.5034 43.5892 42.1881 42.8274 42.5067C42.1202 42.7937 41.4305 43.5314 41.2384 44.2486C41.0308 45.0232 41.3494 45.785 41.691 46.4608C42.0642 47.1911 42.359 47.8696 42.5761 48.6658C42.7246 49.259 42.9369 50.1307 42.5747 50.6794C42.4453 50.8753 42.0472 50.9839 41.738 51.1624C41.6321 50.1808 41.0084 49.3526 40.4603 48.5293C39.726 47.4255 39.1037 46.3056 38.2267 45.3326C37.3105 44.3338 36.9295 43.0018 35.9147 42.0842C35.3681 41.5995 34.7419 41.3548 34.2288 40.8023C33.7445 40.2574 33.3952 39.6103 33.0276 38.9737C32.6916 38.3917 32.4025 37.8069 32.0196 37.2277C31.6262 36.6304 31.1237 36.096 30.6862 35.5483C29.8267 34.3955 28.8636 33.3996 27.825 32.3987C25.6981 30.3529 23.4831 28.4065 21.3562 26.3607C21.1259 26.1298 20.7371 26.5484 20.9568 26.761C22.9613 28.8047 25.0357 30.7596 27.0583 32.7928C28.0109 33.7706 29.0935 34.7218 29.9293 35.7913C30.042 35.9445 30.1651 36.1159 30.2778 36.2691C30.0855 36.3559 29.9169 36.526 29.8659 36.7737C29.7401 37.1858 29.3666 37.5469 29.1414 37.8709C28.7582 38.3832 28.4981 39.0669 28.1751 39.6414C27.5059 40.8765 26.5078 41.962 25.5433 42.9796C23.508 45.1246 21.7737 47.581 20.0939 50.0058C19.9799 50.1444 20.1968 50.3101 20.3185 50.1429C21.311 48.9636 22.3244 47.8208 23.3665 46.6856C24.4968 45.4511 25.8209 44.4683 27.0141 43.3429C28.0934 42.3561 28.9403 41.2608 29.664 39.9942C30.034 39.4169 30.3073 38.7983 30.727 38.265C30.8668 38.0873 30.9962 37.8913 31.0787 37.6982C31.0787 37.6982 31.0997 37.7346 31.1207 37.771C31.4232 38.4208 31.8711 38.9867 32.2386 39.6233C32.8687 40.7145 33.5497 41.5581 34.4756 42.4058C34.983 42.8646 35.4904 43.3234 35.8915 43.8921C36.2744 44.4713 36.6468 45.0323 37.0479 45.601C37.386 46.0605 37.8332 46.4571 38.2258 46.8852C38.6786 47.3755 39.0118 47.9106 39.3555 48.4639C40.0115 49.516 40.6751 50.5394 41.3128 51.6019L41.3261 51.667C41.4047 52.3491 42.2897 52.2019 42.7423 52.0618C43.4629 51.8398 43.83 51.2156 43.9858 50.5194C44.2743 49.2131 43.6049 47.4655 42.9644 46.3561C42.5128 45.574 41.892 44.7927 42.5865 43.9795C43.3509 43.0774 44.1137 43.5585 44.9856 43.9766C45.8575 44.3947 46.7035 44.852 47.6349 45.1631C48.287 45.3686 49.1008 45.602 49.6982 45.2086L49.7555 45.224C49.8885 45.2442 50.0263 45.1889 50.0962 45.1C50.2796 45.3337 50.5252 45.5071 50.88 45.6175C51.819 45.8999 52.909 45.5616 53.8381 45.3647C54.9154 45.1307 55.8038 44.5693 56.7391 44.005C57.3756 43.6375 58.2256 43.2196 58.804 42.6674C59.3639 43.2171 60.0378 43.6283 60.8642 43.7575C61.2448 43.8287 61.4118 43.32 61.1347 43.092C59.4978 41.6848 58.6752 40.05 58.9207 37.8712C59.0253 36.7923 59.4063 35.7721 59.8265 34.7777C60.2285 33.7939 60.8943 32.973 61.3746 32.0409C61.6536 31.5161 60.9644 31.1623 60.5747 31.4115C59.8214 31.8707 59.2465 32.6391 58.7577 33.4306C56.0246 32.729 55.9829 29.2125 56.8512 27.0622C57.8355 24.6509 59.9177 22.503 62.1758 21.2478C63.423 20.552 64.8222 20.0352 66.2592 19.836C68.2848 20.1943 69.8631 21.8778 69.8204 23.988C69.8044 24.5064 70.3628 24.7176 70.7076 24.3487C71.7239 23.2528 70.8803 21.5816 70.0607 20.624C69.9088 20.4449 69.7387 20.2764 69.5791 20.126C71.521 20.9691 73.3269 23.467 71.8869 25.3412C71.8169 25.43 71.7393 25.5476 71.7268 25.6519C71.4273 25.6792 71.1307 25.7535 70.8781 25.7781C70.3212 25.9056 69.8092 26.1527 69.3755 26.4516C69.095 26.6378 69.2686 27.0226 69.545 27.0812C70.3636 27.2391 71.1654 27.1157 71.9882 27.0287C72.9334 26.9437 73.9262 27.0253 74.8365 27.2999C76.6257 27.7947 78.0659 28.9032 79.5272 30.0481C82.3951 32.3693 84.9105 35.088 87.0133 38.1421C88.8906 40.8897 90.345 44.5848 89.1615 47.9113C88.6442 49.3255 87.7484 50.546 86.8497 51.7196C85.9797 52.9009 84.734 53.9353 84.0886 55.2537C84.0243 55.4363 84.2469 55.6958 84.4287 55.5908C85.7124 54.874 86.7901 53.5485 87.7672 52.4266C88.8352 51.2523 89.7485 49.852 90.3203 48.4063C91.6052 45.0455 90.3404 41.2167 88.7302 38.2178C86.8757 34.7537 83.9671 32.0679 81.0306 29.5438Z" fill="#9A795D" fill-opacity="0.7"/>
<path id="Vector_6" d="M61.2467 36.0193C60.3081 36.9977 60.3884 38.6488 60.8624 39.8059C61.3421 41.0567 62.3443 42.0786 63.571 42.6072C63.7249 42.6638 63.883 42.4755 63.7808 42.3405C63.048 41.5753 62.7223 40.3811 62.3714 39.3954C61.9996 38.3734 62.3526 37.5148 62.4342 36.5219C62.5403 35.7817 61.6796 35.5511 61.2467 36.0193Z" fill="#9A795D" fill-opacity="0.7"/>
<path id="Vector_7" d="M73.4238 44.6789C72.7924 43.8794 71.9715 43.2136 71.1171 42.6157C70.2416 41.9814 69.2808 41.4933 68.3382 40.9948C67.1556 40.4165 66.199 39.6836 65.3766 38.6792C65.3059 38.5987 65.1604 38.6827 65.1947 38.7842C65.5686 39.6838 65.8564 40.5604 66.5682 41.2892C67.343 42.1271 68.4234 42.5703 69.3898 43.1521C70.2415 43.7032 71.07 44.3403 71.8546 45.0271C72.2234 45.3719 72.5797 45.821 72.8527 46.2939C73.0732 46.6758 73.1636 47.0844 73.6226 47.2074C73.8157 47.2899 74.0186 47.2212 74.1508 47.0722C74.7572 46.3583 73.8927 45.2811 73.4238 44.6789Z" fill="#9A795D" fill-opacity="0.7"/>
<path id="Vector_8" d="M75.3559 42.6905C73.7148 41.5282 71.9185 40.601 70.1481 39.6347C69.9235 39.4976 69.6934 39.8972 69.9104 40.063C71.2169 40.9819 72.6067 41.877 73.802 42.9814C74.3591 43.4842 74.8435 44.0291 75.2579 44.6629C75.6016 45.2162 75.6717 45.7577 75.7839 46.3719C75.9646 47.1891 77.3207 47.5217 77.5561 46.5855C78.023 44.9579 76.5841 43.5577 75.3559 42.6905Z" fill="#9A795D" fill-opacity="0.7"/>
<path id="Vector_9" d="M86.143 42.3063C85.0419 40.7352 83.2777 39.4016 81.4129 38.9019C80.9826 38.7866 80.7246 39.3478 81.1319 39.5492C82.607 40.298 83.6863 41.6634 84.5494 43.0323C84.9876 43.7493 85.3607 44.4797 85.6716 45.2702C85.9405 45.9879 85.8716 46.8765 86.351 47.4969C86.4952 47.7047 86.8472 47.7683 87.0157 47.5982C87.6928 46.9648 87.5476 45.9573 87.3774 45.1584C87.193 44.1251 86.7302 43.1555 86.143 42.3063Z" fill="#9A795D" fill-opacity="0.7"/>
<path id="Vector_10" d="M68.3505 43.0731C66.9748 42.4124 65.6493 43.6869 64.8513 44.6568C63.9212 45.7759 62.9351 47.2182 62.9888 48.7392C62.9848 49.6145 63.3608 50.3917 63.9186 51.0638C64.3743 51.601 65.1168 52.2151 65.8948 52.0084C65.9962 51.9741 66.0375 51.8776 65.985 51.7866C65.6938 51.3242 65.1689 51.0453 64.8155 50.6431C64.3731 50.1709 64.0945 49.6043 64.0474 48.9767C63.9281 47.9301 64.6449 46.8615 65.1883 46.0385C65.7499 45.2051 66.3842 44.3296 67.3594 43.9606C67.8561 43.7708 68.3284 43.9589 68.7728 44.3085C69.4054 44.8163 69.3357 45.5356 69.2946 46.2625C69.2751 46.5648 69.6929 46.7843 69.8558 46.5205C70.7328 45.1412 69.5905 43.6667 68.3505 43.0731Z" fill="#9A795D" fill-opacity="0.7"/>
<path id="Vector_11" d="M68.0402 45.4343C67.5461 45.0406 66.7269 45.3438 66.3142 45.6791C66.0806 45.8624 66.3059 46.1688 66.5452 46.0792C67.1433 45.8551 67.8114 45.5421 67.9614 46.474C68.1268 47.3485 67.0725 47.4965 66.6242 48.0221C66.3598 48.3202 66.2858 48.654 66.4307 49.0311C66.5203 49.2703 66.6561 49.3374 66.4176 49.5964C66.2308 49.777 66.0805 49.9365 65.9252 50.1717C65.8476 50.2892 65.9421 50.4529 66.0827 50.4445C66.8432 50.4176 67.4826 50.097 67.4712 49.2791C67.5053 48.7502 67.0309 48.6845 67.6885 48.3534C68.0809 48.1511 68.4523 47.9124 68.5935 47.4429C68.7675 46.7361 68.6518 45.9057 68.0402 45.4343Z" fill="#9A795D" fill-opacity="0.7"/>
<path id="Vector_12" d="M75.2685 30.1065C73.2455 29.1647 70.9814 29.0654 68.8167 29.0542C68.5249 29.0529 68.3781 29.4286 68.6965 29.5601C70.5369 30.4375 72.5492 30.7307 74.4231 31.5403C76.2473 32.3059 77.6317 33.7376 79.3783 34.6207C79.7072 34.7703 80.0884 34.3805 79.9281 34.0608C78.9612 32.2182 77.1271 30.9734 75.2685 30.1065Z" fill="#9A795D" fill-opacity="0.7"/>
<path id="Vector_13" d="M72.0971 95.9336C71.5554 95.3733 70.8144 95.0979 70.0965 94.7364C69.2169 94.347 68.3373 93.9576 67.4912 93.5003C65.8594 92.6479 64.4527 91.4715 62.9579 90.3945C61.6982 89.4728 60.3609 88.6686 58.8069 88.3291C57.1381 87.9588 55.4652 87.8334 53.8223 87.4239C52.0646 86.9837 50.7838 87.7475 49.2686 88.5253C47.5687 89.3612 45.635 89.7501 43.8483 90.3937C40.1112 91.7753 36.5372 93.5235 32.8373 95.0534C32.6449 95.1402 32.7842 95.4235 32.9871 95.3549C36.5326 94.2294 40.0227 92.9661 43.5787 91.8588C45.3242 91.3118 47.1193 90.8089 48.8514 90.1969C49.6811 89.9118 50.4268 89.4813 51.1935 89.0872C52.0253 88.6797 52.7648 88.6165 53.6513 88.8079C54.3762 88.9714 55.0962 89.2104 55.8316 89.3921C56.6608 89.5682 57.5312 89.6476 58.3967 89.8027C59.9556 90.0667 61.4866 90.4923 62.7127 91.4819C64.0382 92.5596 65.2937 93.7262 66.785 94.587C67.5162 95.0136 68.3202 95.3981 69.1138 95.7645C69.9073 96.1309 70.8471 96.5825 71.7405 96.576C72.0218 96.5591 72.3694 96.2371 72.0971 95.9336Z" fill="#9A795D" fill-opacity="0.7"/>
</g>
<path id="Iryna" d="M28.5716 129.772V111.546H29.6636V129.772H28.5716ZM33.6245 129.772H32.5325V115.888H33.6245V119.034C34.4565 117.006 36.9005 115.836 38.4345 115.836C39.1105 115.836 39.2925 116.07 39.2925 116.33C39.2925 116.616 39.1105 116.928 38.1745 116.928C36.3285 116.928 33.6245 118.176 33.6245 120.49V129.772ZM44.0205 136.272H43.5785L46.2565 129.746L40.5885 115.836H41.7585L46.8545 128.264L51.9505 115.836H52.3405L44.0205 136.272ZM55.5113 129.772H54.4193V115.888H55.5113V120.282C56.0573 118.904 57.6173 115.836 60.8413 115.836C63.4933 115.836 65.2353 117.89 65.2353 120.854V129.772H64.1173V121.088C64.1173 118.124 62.8173 116.486 60.6333 116.486C57.6953 116.486 56.1873 119.502 55.5113 121.218V129.772ZM79.3628 115.836H80.4288V129.772H79.3628V126.054C78.5828 128.134 76.5808 130.032 73.7988 130.032C70.3148 130.032 67.7148 127.068 67.7148 123.116C67.7148 118.8 70.8348 115.576 74.3968 115.576C77.1528 115.576 78.7128 117.5 79.3628 119.138V115.836ZM79.3628 124.156V120.698C79.3628 119.502 77.6988 116.07 74.5008 116.07C71.5108 116.07 68.8588 119.06 68.8588 123.116C68.8588 126.808 71.0688 129.46 73.9808 129.46C76.9708 129.46 79.3628 126.626 79.3628 124.156Z" fill="black"/>
</g>
</g>
</g>
<defs>
<clipPath id="clip0_0_1">
<rect width="1440" height="5709" fill="white" transform="translate(-665 -4241)"/>
</clipPath>
</defs>
</svg>
