<svg width="46" height="58" viewBox="0 0 46 58" fill="none" xmlns="http://www.w3.org/2000/svg">
<path d="M3.34193 52.592C5.11667 53.5002 6.98169 54.1482 8.94349 54.509C9.8862 54.6827 10.8372 54.7836 11.7951 54.8603C12.9083 54.9495 14.0138 54.891 15.1158 54.8009C17.151 54.6342 19.0919 54.0828 20.9413 53.2148C23.378 52.0714 25.4396 50.4493 27.0867 48.3265C28.7204 46.2216 29.7708 43.8463 30.2313 41.2168C30.4826 39.7831 30.5455 38.3356 30.4396 36.8903C30.2638 34.4916 29.5203 32.2688 28.2048 30.2457C26.6766 27.896 24.7655 25.9092 22.4583 24.317C20.5819 23.0224 18.6757 21.7715 16.7851 20.4973C14.6822 19.0801 12.5793 17.6625 10.6106 16.059C10.0984 15.6419 9.59193 15.2175 9.10061 14.7761C8.24254 14.0056 7.73733 13.0306 7.58542 11.8971C7.4691 11.0283 7.5316 10.1564 7.74775 9.29923C8.16745 7.63646 9.08325 6.32538 10.5086 5.36904C11.766 4.52574 13.1579 4.00772 14.6358 3.72402C16.1154 3.43989 17.6037 3.49663 19.0906 3.68894C20.8623 3.91763 22.539 4.45038 24.1271 5.26119C24.506 5.4548 24.8662 5.68479 25.2334 5.90005C25.4465 6.02479 25.5967 6.20584 25.6319 6.45142C25.7794 7.48096 25.9179 8.51181 26.0611 9.55174C25.8532 9.55478 25.8563 9.39409 25.8003 9.3027C25.5676 8.92111 25.345 8.53346 25.1254 8.14408C24.4105 6.87978 23.3723 5.95852 22.0889 5.3058C20.6696 4.58378 19.1675 4.14026 17.5772 3.99603C15.7807 3.83317 14.1006 4.1931 12.5455 5.10223C10.8992 6.06464 9.93351 7.52644 9.57631 9.3707C9.30938 10.748 9.68698 11.9352 10.8306 12.8366C12.4891 14.1438 14.21 15.3608 15.996 16.487C17.69 17.5551 19.3901 18.6145 21.0668 19.7099C22.8168 20.8529 24.4904 22.1016 26.0524 23.4941C27.7794 25.0339 29.3063 26.7447 30.5273 28.7167C31.7734 30.7295 32.6358 32.8916 33.0364 35.2275C33.1514 35.8975 33.2139 36.575 33.2256 37.2589C33.2599 39.227 33.0954 41.1726 32.5642 43.0723C31.9014 45.4415 30.8033 47.6032 29.1839 49.4548C27.2356 51.6828 24.8137 53.2399 21.9787 54.1192C20.8411 54.4722 19.6883 54.7862 18.5264 55.0487C16.7725 55.445 14.9951 55.5797 13.1922 55.4497C11.9157 55.3575 10.6423 55.2644 9.38751 55.0067C7.39141 54.5965 5.49731 53.9061 3.71259 52.9203C3.56719 52.8402 3.39705 52.7748 3.35582 52.5803L3.34106 52.5907L3.34193 52.592Z" fill="#202020"/>
<path d="M34.3958 41.5893C34.3741 41.5403 34.3416 41.5031 34.3468 41.4719C34.4197 41.0314 34.4982 40.5922 34.5751 40.1522C34.638 39.7922 34.7491 39.4552 34.97 39.1538C36.7756 36.6889 37.8403 33.8995 38.533 30.9538C38.9583 29.146 39.1762 27.3108 39.1892 25.4518C39.1979 24.1529 39.1918 22.8548 39.0351 21.5628C38.5338 17.4269 37.2074 13.6084 34.6193 10.2924C31.4479 6.22793 27.3125 3.71796 22.2487 2.73433C20.0985 2.31679 17.9323 2.28214 15.7543 2.45626C14.562 2.55155 13.3854 2.72697 12.2218 2.99724C11.9553 3.05917 11.6923 3.13627 11.4258 3.20644C11.358 3.04878 11.4822 2.9981 11.5603 2.96735C11.8168 2.86687 12.0772 2.76681 12.3455 2.70618C13.2396 2.5052 14.1441 2.377 15.0577 2.28907C16.8029 2.12145 18.5503 2.1063 20.2964 2.19725C21.7231 2.27132 23.1337 2.50304 24.526 2.82702C26.6085 3.31169 28.6228 3.99386 30.5343 4.95714C35.0291 7.22282 38.2608 10.6978 40.3403 15.2543C41.2387 17.2229 41.7782 19.298 42.0612 21.4419C42.1836 22.371 42.2756 23.3014 42.2903 24.2391C42.3238 26.3207 42.0199 28.3507 41.3967 30.3375C40.5225 33.1229 39.276 35.7208 37.5208 38.0632C36.6124 39.2751 35.5794 40.3813 34.5495 41.4896C34.51 41.5321 34.4496 41.5555 34.3967 41.5893H34.3958Z" fill="#202020"/>
<path d="M27.2725 45.6316C27.1666 45.8309 27.1375 45.9703 27.0533 46.0253C26.8775 46.1401 26.6792 46.2306 26.4786 46.296C25.1397 46.7335 23.7742 47.0497 22.374 47.2316C20.8693 47.4274 19.3602 47.4867 17.845 47.482C15.6271 47.475 13.4092 47.4755 11.1917 47.4729C11.0255 47.4729 10.8593 47.4729 10.7169 47.4729C10.6375 47.3239 10.7239 47.2671 10.7777 47.2121C11.5307 46.4385 11.8306 45.4766 11.9127 44.4345C11.9513 43.9472 11.94 43.4556 11.94 42.9657C11.94 35.2786 11.9378 27.591 11.937 19.9039C11.937 19.6752 11.9478 19.4465 11.9556 19.1507C12.1067 19.2187 12.2048 19.246 12.2838 19.3006C12.8628 19.6995 13.4335 20.1105 14.0168 20.5034C14.3649 20.7377 14.5511 21.0374 14.529 21.464C14.5168 21.6975 14.529 21.9322 14.529 22.1666C14.529 30.1092 14.529 38.0524 14.5299 45.995C14.5299 46.2501 14.529 46.5065 14.5503 46.7604C14.5702 46.996 14.7052 47.1575 14.947 47.1961C15.1358 47.2264 15.3276 47.2489 15.5181 47.2511C16.8402 47.2671 18.1627 47.3052 19.4843 47.2823C22.0199 47.2381 24.4869 46.8245 26.8259 45.7958C26.9361 45.7473 27.052 45.7113 27.2729 45.6303L27.2725 45.6316Z" fill="#202020"/>
</svg>
