<svg width="26" height="26" viewBox="0 0 26 26" fill="none" xmlns="http://www.w3.org/2000/svg">
<path fill-rule="evenodd" clip-rule="evenodd" d="M12.9999 14.7246C13.919 14.7246 14.8005 14.3596 15.4506 13.7098C16.1006 13.0601 16.4661 12.1788 16.4665 11.2596C16.4665 10.3402 16.1013 9.45846 15.4512 8.80833C14.801 8.15821 13.9193 7.79297 12.9999 7.79297C12.0805 7.79297 11.1987 8.15821 10.5486 8.80833C9.89844 9.45846 9.5332 10.3402 9.5332 11.2596C9.53366 12.1788 9.8991 13.0601 10.5492 13.7098C11.1993 14.3596 12.0808 14.7246 12.9999 14.7246Z" stroke="black" stroke-linecap="square"/>
<path fill-rule="evenodd" clip-rule="evenodd" d="M23.4001 11.2598C23.4001 19.9212 14.7334 25.1178 13.0001 25.1178C11.2668 25.1178 2.6001 19.9212 2.6001 11.2598C2.60194 8.50272 3.69846 5.85922 5.64864 3.91034C7.59882 1.96146 10.243 0.866699 13.0001 0.866699C18.7426 0.866699 23.4001 5.5207 23.4001 11.2598Z" stroke="black" stroke-linecap="square"/>
</svg>
