<svg width="53" height="53" viewBox="0 0 53 53" fill="none" xmlns="http://www.w3.org/2000/svg">
<g id="ri:whatsapp-fill">
<path id="Vector" d="M26.5023 4.4165C38.6989 4.4165 48.5857 14.3032 48.5857 26.4998C48.5857 38.6965 38.6989 48.5832 26.5023 48.5832C22.5996 48.5899 18.7656 47.5571 15.3944 45.5909L4.42781 48.5832L7.41348 37.6122C5.44576 34.2399 4.41214 30.4042 4.41898 26.4998C4.41898 14.3032 14.3057 4.4165 26.5023 4.4165ZM18.9763 16.1207L18.5346 16.1383C18.2491 16.158 17.9701 16.233 17.7131 16.3592C17.4737 16.495 17.2551 16.6646 17.0639 16.8627C16.7989 17.1122 16.6487 17.3286 16.4875 17.5384C15.6707 18.6004 15.2309 19.9042 15.2376 21.244C15.242 22.3261 15.5247 23.3795 15.9664 24.3644C16.8696 26.3563 18.3558 28.4653 20.3168 30.4196C20.7894 30.89 21.2531 31.3626 21.7522 31.802C24.1889 33.9472 27.0926 35.4943 30.2322 36.3203L31.4865 36.5124C31.8951 36.5345 32.3036 36.5036 32.7144 36.4837C33.3574 36.4498 33.9852 36.2757 34.5539 35.9736C34.8429 35.8242 35.1251 35.6621 35.3997 35.4878C35.3997 35.4878 35.4932 35.4245 35.6757 35.289C35.9739 35.0682 36.1572 34.9114 36.4045 34.653C36.59 34.4616 36.7446 34.2393 36.8682 33.9861C37.0405 33.6261 37.2127 32.9393 37.2834 32.3674C37.3364 31.9301 37.3209 31.6916 37.3143 31.5437C37.3055 31.3074 37.1089 31.0623 36.8947 30.9585L35.6095 30.3821C35.6095 30.3821 33.6882 29.5451 32.5134 29.0107C32.3904 28.9572 32.2587 28.9265 32.1247 28.9202C31.9736 28.9044 31.8209 28.9212 31.6769 28.9696C31.5328 29.018 31.4009 29.0968 31.29 29.2006C31.2789 29.1962 31.131 29.3221 29.5344 31.2566C29.4427 31.3797 29.3165 31.4728 29.1718 31.5239C29.027 31.5751 28.8703 31.5819 28.7217 31.5437C28.5778 31.5053 28.4368 31.4566 28.2999 31.3979C28.0261 31.2831 27.9311 31.2389 27.7434 31.1594C26.4755 30.6071 25.302 29.8598 24.2653 28.9445C23.987 28.7016 23.7287 28.4365 23.4636 28.1804C22.5949 27.3483 21.8378 26.4071 21.2111 25.3802L21.0809 25.1704C20.9887 25.0286 20.9131 24.8767 20.8556 24.7177C20.7717 24.3931 20.9903 24.1325 20.9903 24.1325C20.9903 24.1325 21.5269 23.5451 21.7765 23.2271C22.0194 22.9179 22.2248 22.6176 22.3573 22.4034C22.6179 21.9838 22.6996 21.5532 22.5627 21.2197C21.9443 19.7092 21.3054 18.2068 20.6458 16.7125C20.5155 16.4166 20.1291 16.2046 19.7779 16.1626C19.6587 16.1479 19.5394 16.1361 19.4202 16.1273C19.1237 16.1103 18.8264 16.1132 18.5302 16.1361L18.9763 16.1207Z" fill="#6CCB00"/>
</g>
</svg>
