<svg xmlns="http://www.w3.org/2000/svg" version="1.1" xmlns:xlink="http://www.w3.org/1999/xlink" xmlns:svgjs="http://svgjs.dev/svgjs" width="41" height="49"><svg width="41" height="49" viewBox="0 0 41 49" fill="none" xmlns="http://www.w3.org/2000/svg">
<path d="M2.9788 44.4311C4.56063 45.1985 6.22293 45.7459 7.9715 46.0507C8.81174 46.1974 9.65933 46.2827 10.5131 46.3475C11.5054 46.4228 12.4907 46.3734 13.4729 46.2973C15.2868 46.1564 17.0168 45.6906 18.6652 44.9573C20.837 43.9913 22.6745 42.621 24.1426 40.8276C25.5987 39.0492 26.5349 37.0425 26.9454 34.8211C27.1694 33.6099 27.2255 32.387 27.1311 31.1659C26.9744 29.1395 26.3117 27.2616 25.1392 25.5524C23.7771 23.5673 22.0738 21.8888 20.0173 20.5437C18.3449 19.45 16.6459 18.3932 14.9607 17.3167C13.0864 16.1194 11.2121 14.9217 9.45739 13.5671C9.00091 13.2147 8.54945 12.8561 8.11154 12.4833C7.34673 11.8323 6.89644 11.0086 6.76104 10.051C6.65737 9.31698 6.71307 8.58039 6.90572 7.85624C7.27981 6.45149 8.09606 5.34385 9.36648 4.53591C10.4872 3.82347 11.7278 3.38583 13.045 3.14615C14.3638 2.90611 15.6903 2.95405 17.0157 3.11652C18.5948 3.30972 20.0892 3.7598 21.5047 4.4448C21.8424 4.60836 22.1635 4.80266 22.4908 4.98452C22.6807 5.08991 22.8146 5.24286 22.8459 5.45034C22.9774 6.32012 23.1009 7.19101 23.2285 8.06957C23.0432 8.07213 23.0459 7.93638 22.996 7.85917C22.7887 7.5368 22.5902 7.2093 22.3945 6.88034C21.7573 5.81223 20.832 5.03392 19.6881 4.48248C18.423 3.8725 17.0842 3.4978 15.6667 3.37595C14.0656 3.23837 12.5681 3.54244 11.182 4.3105C9.71465 5.12357 8.85391 6.35854 8.53553 7.91662C8.29761 9.08024 8.63417 10.0832 9.65353 10.8447C11.1317 11.949 12.6655 12.9773 14.2574 13.9286C15.7673 14.831 17.2826 15.726 18.777 16.6514C20.3368 17.6171 21.8285 18.672 23.2208 19.8485C24.7601 21.1493 26.121 22.5947 27.2092 24.2607C28.3199 25.9611 29.0885 27.7878 29.4456 29.7612C29.5481 30.3272 29.6038 30.8995 29.6143 31.4773C29.6448 33.14 29.4982 34.7837 29.0247 36.3887C28.434 38.3902 27.4552 40.2165 26.0119 41.7808C24.2753 43.6631 22.1167 44.9786 19.5898 45.7214C18.5759 46.0196 17.5484 46.2849 16.5128 46.5066C14.9495 46.8414 13.3654 46.9552 11.7584 46.8455C10.6207 46.7675 9.48563 46.6889 8.36725 46.4711C6.58812 46.1246 4.8999 45.5413 3.30917 44.7085C3.17958 44.6408 3.02793 44.5856 2.99118 44.4213L2.97803 44.4301L2.9788 44.4311Z" fill="#77988A"></path>
<path d="M30.6572 35.1358C30.6379 35.0944 30.6088 35.0629 30.6135 35.0366C30.6785 34.6645 30.7485 34.2934 30.817 33.9216C30.8731 33.6176 30.9721 33.3329 31.169 33.0782C32.7783 30.9958 33.7272 28.6393 34.3447 26.1507C34.7238 24.6233 34.918 23.0729 34.9296 21.5024C34.9373 20.405 34.9319 19.3084 34.7922 18.2168C34.3454 14.7227 33.1632 11.4968 30.8564 8.6953C28.0297 5.26153 24.3438 3.14103 19.8304 2.31004C17.9139 1.95729 15.9832 1.92802 14.042 2.07512C12.9793 2.15562 11.9305 2.30382 10.8934 2.53215C10.6558 2.58447 10.4214 2.64961 10.1839 2.70889C10.1235 2.57569 10.2342 2.53288 10.3038 2.5069C10.5324 2.42201 10.7646 2.33748 11.0036 2.28625C11.8005 2.11647 12.6067 2.00815 13.4211 1.93387C14.9766 1.79226 16.534 1.77946 18.0903 1.8563C19.3619 1.91887 20.6192 2.11464 21.8602 2.38834C23.7163 2.7978 25.5117 3.37412 27.2154 4.18792C31.2216 6.10204 34.1021 9.03779 35.9555 12.8872C36.7563 14.5503 37.2371 16.3035 37.4894 18.1147C37.5985 18.8996 37.6805 19.6856 37.6936 20.4778C37.7234 22.2364 37.4526 23.9515 36.8971 25.63C36.118 27.9832 35.007 30.1779 33.4425 32.1568C32.6328 33.1807 31.7121 34.1152 30.7941 35.0516C30.7589 35.0875 30.7052 35.1072 30.658 35.1358H30.6572Z" fill="#77988A"></path>
<path d="M24.3081 38.5509C24.2137 38.7192 24.1878 38.837 24.1127 38.8835C23.9561 38.9805 23.7793 39.0569 23.6005 39.1122C22.4071 39.4818 21.1901 39.7489 19.9421 39.9026C18.6009 40.068 17.2558 40.1181 15.9053 40.1141C13.9285 40.1082 11.9517 40.1086 9.97527 40.1064C9.82711 40.1064 9.67894 40.1064 9.55206 40.1064C9.48126 39.9805 9.55825 39.9326 9.60622 39.8861C10.2774 39.2326 10.5447 38.4199 10.6178 37.5395C10.6523 37.1278 10.6422 36.7125 10.6422 36.2986C10.6422 29.8043 10.6403 23.3097 10.6395 16.8154C10.6395 16.6222 10.6492 16.429 10.6561 16.179C10.7908 16.2365 10.8782 16.2595 10.9486 16.3057C11.4646 16.6427 11.9734 16.9899 12.4933 17.3218C12.8035 17.5198 12.9695 17.773 12.9498 18.1334C12.9389 18.3306 12.9498 18.529 12.9498 18.7269C12.9498 25.4371 12.9498 32.1477 12.9505 38.8579C12.9505 39.0734 12.9498 39.29 12.9687 39.5045C12.9865 39.7035 13.1068 39.84 13.3223 39.8726C13.4906 39.8982 13.6616 39.9172 13.8314 39.919C15.0097 39.9326 16.1885 39.9648 17.3664 39.9454C19.6264 39.9081 21.8253 39.5586 23.91 38.6896C24.0083 38.6486 24.1116 38.6182 24.3085 38.5498L24.3081 38.5509Z" fill="#77988A"></path>
</svg><style>@media (prefers-color-scheme: light) { :root { filter: none; } }
@media (prefers-color-scheme: dark) { :root { filter: none; } }
</style></svg>